<svg xmlns="http://www.w3.org/2000/svg" viewBox="0 0 1600 900" role="img" aria-labelledby="title desc">
  <title id="title">联系客服</title>
  <desc id="desc">如有问题，请发送邮件至 1493719411@qq.com。</desc>
  <defs>
    <linearGradient id="bg" x1="0" x2="1" y1="0" y2="1">
      <stop offset="0" stop-color="#f8fbff"/>
      <stop offset="0.48" stop-color="#eef6ff"/>
      <stop offset="1" stop-color="#dfeaff"/>
    </linearGradient>
    <linearGradient id="mail" x1="0" x2="1" y1="0" y2="1">
      <stop offset="0" stop-color="#93c5fd"/>
      <stop offset="1" stop-color="#4f46e5"/>
    </linearGradient>
    <filter id="shadow" x="-20%" y="-20%" width="140%" height="140%">
      <feDropShadow dx="0" dy="24" stdDeviation="28" flood-color="#1e40af" flood-opacity="0.16"/>
    </filter>
  </defs>
  <rect width="1600" height="900" fill="url(#bg)"/>
  <g opacity="0.35" fill="none" stroke="#93c5fd" stroke-width="3">
    <circle cx="1410" cy="70" r="170"/>
    <circle cx="1480" cy="240" r="250"/>
    <path d="M0 780C190 650 300 820 450 730C600 640 700 570 850 640C1000 710 1140 560 1600 600"/>
    <path d="M0 810C220 680 300 860 480 760C650 664 770 610 920 680C1060 744 1190 610 1600 650"/>
  </g>
  <g opacity="0.42" fill="#60a5fa">
    <circle cx="145" cy="246" r="9"/>
    <circle cx="205" cy="246" r="9"/>
    <circle cx="265" cy="246" r="9"/>
    <circle cx="145" cy="306" r="9"/>
    <circle cx="205" cy="306" r="9"/>
    <circle cx="265" cy="306" r="9"/>
    <circle cx="1335" cy="700" r="8"/>
    <circle cx="1395" cy="700" r="8"/>
    <circle cx="1455" cy="700" r="8"/>
    <circle cx="1335" cy="760" r="8"/>
    <circle cx="1395" cy="760" r="8"/>
    <circle cx="1455" cy="760" r="8"/>
  </g>

  <g filter="url(#shadow)">
    <rect x="310" y="158" width="980" height="604" rx="48" fill="rgba(255,255,255,0.7)" stroke="#fff" stroke-width="5"/>
    <rect x="340" y="188" width="920" height="544" rx="34" fill="rgba(255,255,255,0.52)" stroke="#dbeafe" stroke-width="3"/>
  </g>

  <g transform="translate(590 230)">
    <path d="M0 56h152c25 0 45 20 45 45v82c0 25-20 45-45 45H0c-25 0-45-20-45-45v-82c0-25 20-45 45-45z" fill="url(#mail)"/>
    <path d="M-42 86l140 105 142-105" fill="none" stroke="#fff" stroke-width="18" stroke-linecap="round" stroke-linejoin="round"/>
  </g>
  <rect x="804" y="272" width="4" height="88" rx="2" fill="#a5b4fc"/>
  <g transform="translate(890 250)">
    <path d="M85 168c0-60-42-105-98-105s-98 45-98 105" fill="none" stroke="#4f46e5" stroke-width="18" stroke-linecap="round"/>
    <rect x="-132" y="160" width="44" height="78" rx="16" fill="#4f46e5"/>
    <rect x="88" y="160" width="44" height="78" rx="16" fill="#4f46e5"/>
    <path d="M103 238c-4 42-33 64-88 64" fill="none" stroke="#4f46e5" stroke-width="12" stroke-linecap="round"/>
    <rect x="-3" y="290" width="50" height="18" rx="9" fill="#4f46e5"/>
  </g>

  <text x="800" y="455" text-anchor="middle" fill="#0f2f66" font-family="Microsoft YaHei, Arial, sans-serif" font-size="86" font-weight="950">联系客服</text>
  <text x="800" y="545" text-anchor="middle" fill="#475569" font-family="Microsoft YaHei, Arial, sans-serif" font-size="42" font-weight="700">如有问题，请发送邮件至</text>
  <text x="800" y="665" text-anchor="middle" fill="#071536" font-family="Arial, Microsoft YaHei, sans-serif" font-size="72" font-weight="900">1493719411@qq.com</text>
</svg>
